<mxfile host="www.draw.io" modified="2019-12-10T02:02:54.338Z" agent="Mozilla/5.0 (Macintosh; Intel Mac OS X 10_15_1) AppleWebKit/537.36 (KHTML, like Gecko) Chrome/78.0.3904.108 Safari/537.36" etag="kE9_TGJNisi1u9JUMhWK" version="12.3.9" type="github" pages="1">
  <diagram id="0d7cefc2-ccd6-e077-73ed-a8e48b0cddf6" name="Page-1">
    <mxGraphModel dx="1426" dy="1598" grid="1" gridSize="10" guides="1" tooltips="1" connect="1" arrows="1" fold="1" page="1" pageScale="1" pageWidth="1169" pageHeight="827" background="#ffffff" math="0" shadow="0">
      <root>
        <mxCell id="0"/>
        <mxCell id="1" parent="0"/>
        <mxCell id="XprCKQyqKMap_J-1XE0t-80" value="" style="group" parent="1" vertex="1" connectable="0">
          <mxGeometry x="79.5" y="-200" width="559" height="557" as="geometry"/>
        </mxCell>
        <mxCell id="6vp1yoECgQzRmQz0F0uj-126" value="" style="endArrow=classic;html=1;strokeColor=#3333FF;strokeWidth=3;exitX=0.5;exitY=1;exitDx=0;exitDy=0;exitPerimeter=0;entryX=0.5;entryY=0;entryDx=0;entryDy=0;" parent="XprCKQyqKMap_J-1XE0t-80" source="6vp1yoECgQzRmQz0F0uj-124" target="28" edge="1">
          <mxGeometry width="50" height="50" relative="1" as="geometry">
            <mxPoint x="70.5" y="351" as="sourcePoint"/>
            <mxPoint x="120.5" y="301" as="targetPoint"/>
          </mxGeometry>
        </mxCell>
        <mxCell id="6vp1yoECgQzRmQz0F0uj-149" value="" style="whiteSpace=wrap;html=1;aspect=fixed;strokeColor=#7EA6E0;strokeWidth=3;fillColor=none;backgroundOutline=0;container=0;" parent="XprCKQyqKMap_J-1XE0t-80" vertex="1">
          <mxGeometry x="-11" y="-13" width="570" height="570" as="geometry"/>
        </mxCell>
        <mxCell id="6vp1yoECgQzRmQz0F0uj-107" value="" style="shape=mxgraph.signs.tech.camera_2;html=1;fillColor=#000000;strokeColor=none;verticalLabelPosition=bottom;verticalAlign=top;align=center;" parent="XprCKQyqKMap_J-1XE0t-80" vertex="1">
          <mxGeometry x="10.5" width="99" height="72" as="geometry"/>
        </mxCell>
        <mxCell id="79" value="" style="swimlane;shadow=0;strokeColor=#4277BB;fillColor=#ffffff;fontColor=#4277BB;align=right;startSize=0;collapsible=0;strokeWidth=3;" parent="XprCKQyqKMap_J-1XE0t-80" vertex="1">
          <mxGeometry x="410.5" y="150" width="137" height="394" as="geometry"/>
        </mxCell>
        <mxCell id="6vp1yoECgQzRmQz0F0uj-142" value="&lt;font style=&quot;font-size: 18px&quot;&gt;Public Cloud&lt;/font&gt;" style="shape=image;html=1;verticalAlign=top;verticalLabelPosition=bottom;labelBackgroundColor=#ffffff;imageAspect=0;aspect=fixed;image=https://cdn2.iconfinder.com/data/icons/crystalproject/64x64/apps/nautilus.png" parent="79" vertex="1">
          <mxGeometry x="21.5" y="6" width="94" height="94" as="geometry"/>
        </mxCell>
        <mxCell id="6vp1yoECgQzRmQz0F0uj-143" value="" style="endArrow=none;html=1;strokeWidth=3;strokeColor=#3333FF;" parent="79" edge="1">
          <mxGeometry width="50" height="50" relative="1" as="geometry">
            <mxPoint x="-1" y="130" as="sourcePoint"/>
            <mxPoint x="137" y="130" as="targetPoint"/>
            <Array as="points"/>
          </mxGeometry>
        </mxCell>
        <mxCell id="6vp1yoECgQzRmQz0F0uj-144" value="&lt;font style=&quot;font-size: 15px&quot;&gt;Kebernetes&amp;nbsp;&lt;br&gt;Function Controller&lt;/font&gt;" style="aspect=fixed;html=1;points=[];align=center;image;fontSize=12;image=img/lib/mscae/Kubernetes.svg;" parent="79" vertex="1">
          <mxGeometry x="33.5" y="150" width="70" height="67" as="geometry"/>
        </mxCell>
        <mxCell id="6vp1yoECgQzRmQz0F0uj-147" value="" style="endArrow=none;html=1;strokeWidth=3;strokeColor=#3333FF;" parent="79" edge="1">
          <mxGeometry width="50" height="50" relative="1" as="geometry">
            <mxPoint y="270" as="sourcePoint"/>
            <mxPoint x="138" y="270" as="targetPoint"/>
            <Array as="points"/>
          </mxGeometry>
        </mxCell>
        <mxCell id="6vp1yoECgQzRmQz0F0uj-148" value="&lt;font style=&quot;font-size: 18px&quot;&gt;Kubeless&lt;/font&gt;" style="outlineConnect=0;fontColor=#232F3E;gradientColor=#F78E04;gradientDirection=north;fillColor=#D05C17;strokeColor=#ffffff;dashed=0;verticalLabelPosition=bottom;verticalAlign=top;align=center;html=1;fontSize=12;fontStyle=0;aspect=fixed;shape=mxgraph.aws4.resourceIcon;resIcon=mxgraph.aws4.eks;" parent="79" vertex="1">
          <mxGeometry x="29.5" y="280" width="78" height="78" as="geometry"/>
        </mxCell>
        <mxCell id="28" value="" style="swimlane;shadow=0;strokeColor=#4277BB;fillColor=#ffffff;fontColor=#4277BB;align=right;startSize=0;collapsible=0;strokeWidth=3;" parent="XprCKQyqKMap_J-1XE0t-80" vertex="1">
          <mxGeometry y="240" width="120" height="304" as="geometry"/>
        </mxCell>
        <mxCell id="6vp1yoECgQzRmQz0F0uj-108" value="&lt;font style=&quot;font-size: 16px&quot;&gt;Edge Controller&lt;/font&gt;" style="aspect=fixed;html=1;points=[];align=center;image;fontSize=12;image=img/lib/mscae/Data_Box_Edge_Data_Box_Gateway.svg;" parent="28" vertex="1">
          <mxGeometry x="16" y="6" width="88" height="56" as="geometry"/>
        </mxCell>
        <mxCell id="6vp1yoECgQzRmQz0F0uj-116" value="" style="endArrow=none;html=1;exitX=-0.017;exitY=0.329;exitDx=0;exitDy=0;exitPerimeter=0;entryX=1;entryY=0.326;entryDx=0;entryDy=0;entryPerimeter=0;strokeWidth=3;strokeColor=#3333FF;" parent="28" edge="1">
          <mxGeometry width="50" height="50" relative="1" as="geometry">
            <mxPoint x="-2.0399999999999636" y="201.01599999999996" as="sourcePoint"/>
            <mxPoint x="120" y="200.10400000000004" as="targetPoint"/>
            <Array as="points"/>
          </mxGeometry>
        </mxCell>
        <mxCell id="6vp1yoECgQzRmQz0F0uj-117" value="&lt;font style=&quot;font-size: 15px ; font-weight: normal&quot; color=&quot;#330000&quot;&gt;Cloud Scheduler&lt;/font&gt;" style="html=1;fillColor=#5184F3;strokeColor=none;verticalAlign=top;labelPosition=center;verticalLabelPosition=bottom;align=center;fontSize=11;fontStyle=1;fontColor=#999999;shape=mxgraph.gcp2.cloud_scheduler" parent="28" vertex="1">
          <mxGeometry x="32" y="110" width="56" height="60" as="geometry"/>
        </mxCell>
        <mxCell id="6vp1yoECgQzRmQz0F0uj-127" value="&lt;font style=&quot;font-size: 16px&quot;&gt;Socket Server&lt;/font&gt;" style="verticalLabelPosition=bottom;html=1;verticalAlign=top;align=center;strokeColor=none;fillColor=#00BEF2;shape=mxgraph.azure.server_rack;" parent="28" vertex="1">
          <mxGeometry x="38" y="218" width="50" height="50" as="geometry"/>
        </mxCell>
        <mxCell id="6vp1yoECgQzRmQz0F0uj-114" value="" style="endArrow=none;html=1;exitX=-0.017;exitY=0.329;exitDx=0;exitDy=0;exitPerimeter=0;entryX=1;entryY=0.326;entryDx=0;entryDy=0;entryPerimeter=0;strokeWidth=3;strokeColor=#3333FF;" parent="XprCKQyqKMap_J-1XE0t-80" source="28" target="28" edge="1">
          <mxGeometry width="50" height="50" relative="1" as="geometry">
            <mxPoint x="96.5" y="393.5" as="sourcePoint"/>
            <mxPoint x="190.5" y="360" as="targetPoint"/>
            <Array as="points"/>
          </mxGeometry>
        </mxCell>
        <mxCell id="6vp1yoECgQzRmQz0F0uj-124" value="&lt;font style=&quot;font-size: 16px&quot;&gt;Batch of images&lt;/font&gt;" style="aspect=fixed;html=1;points=[];align=center;image;fontSize=12;image=img/lib/mscae/Shared_Image_Galleries.svg;" parent="XprCKQyqKMap_J-1XE0t-80" vertex="1">
          <mxGeometry x="16.5" y="100" width="87" height="87" as="geometry"/>
        </mxCell>
        <mxCell id="6vp1yoECgQzRmQz0F0uj-131" value="" style="endArrow=classic;html=1;strokeColor=#3333FF;strokeWidth=3;exitX=0.5;exitY=1;exitDx=0;exitDy=0;exitPerimeter=0;entryX=0.5;entryY=0;entryDx=0;entryDy=0;" parent="XprCKQyqKMap_J-1XE0t-80" source="6vp1yoECgQzRmQz0F0uj-107" target="6vp1yoECgQzRmQz0F0uj-124" edge="1">
          <mxGeometry width="50" height="50" relative="1" as="geometry">
            <mxPoint x="60.5" y="32" as="sourcePoint"/>
            <mxPoint x="60.5" y="210" as="targetPoint"/>
          </mxGeometry>
        </mxCell>
        <mxCell id="6vp1yoECgQzRmQz0F0uj-132" value="" style="endArrow=classic;html=1;strokeColor=#3333FF;strokeWidth=3;entryX=-0.011;entryY=0.868;entryDx=0;entryDy=0;entryPerimeter=0;exitX=1.021;exitY=0.829;exitDx=0;exitDy=0;exitPerimeter=0;" parent="XprCKQyqKMap_J-1XE0t-80" source="28" target="77" edge="1">
          <mxGeometry width="50" height="50" relative="1" as="geometry">
            <mxPoint x="120.5" y="500" as="sourcePoint"/>
            <mxPoint x="215.5" y="499" as="targetPoint"/>
          </mxGeometry>
        </mxCell>
        <mxCell id="6vp1yoECgQzRmQz0F0uj-137" value="" style="endArrow=classic;startArrow=classic;html=1;strokeColor=#3333FF;strokeWidth=3;exitX=1;exitY=0.5;exitDx=0;exitDy=0;entryX=0;entryY=0.5;entryDx=0;entryDy=0;" parent="XprCKQyqKMap_J-1XE0t-80" source="77" target="79" edge="1">
          <mxGeometry width="50" height="50" relative="1" as="geometry">
            <mxPoint x="357.5" y="373" as="sourcePoint"/>
            <mxPoint x="447.5" y="361" as="targetPoint"/>
          </mxGeometry>
        </mxCell>
        <mxCell id="6vp1yoECgQzRmQz0F0uj-140" value="" style="group" parent="XprCKQyqKMap_J-1XE0t-80" vertex="1" connectable="0">
          <mxGeometry x="220.5" y="140" width="137" height="394" as="geometry"/>
        </mxCell>
        <mxCell id="77" value="" style="swimlane;shadow=0;strokeColor=#4277BB;fillColor=#ffffff;fontColor=#4277BB;align=right;startSize=0;collapsible=0;strokeWidth=3;" parent="6vp1yoECgQzRmQz0F0uj-140" vertex="1">
          <mxGeometry x="-19.5" y="10" width="137" height="394" as="geometry"/>
        </mxCell>
        <mxCell id="6vp1yoECgQzRmQz0F0uj-133" value="" style="endArrow=none;html=1;strokeWidth=3;strokeColor=#3333FF;" parent="77" edge="1">
          <mxGeometry width="50" height="50" relative="1" as="geometry">
            <mxPoint y="270" as="sourcePoint"/>
            <mxPoint x="138" y="270" as="targetPoint"/>
            <Array as="points"/>
          </mxGeometry>
        </mxCell>
        <mxCell id="6vp1yoECgQzRmQz0F0uj-134" value="&lt;font style=&quot;font-size: 18px&quot;&gt;Socket Client&lt;/font&gt;" style="outlineConnect=0;dashed=0;verticalLabelPosition=bottom;verticalAlign=top;align=center;html=1;shape=mxgraph.aws3.management_console;fillColor=#D2D3D3;gradientColor=none;" parent="77" vertex="1">
          <mxGeometry x="37" y="290" width="63" height="63" as="geometry"/>
        </mxCell>
        <mxCell id="6vp1yoECgQzRmQz0F0uj-135" value="&lt;font style=&quot;font-size: 18px&quot;&gt;Requester&lt;/font&gt;" style="pointerEvents=1;shadow=0;dashed=0;html=1;strokeColor=none;fillColor=#505050;labelPosition=center;verticalLabelPosition=bottom;outlineConnect=0;verticalAlign=top;align=center;shape=mxgraph.office.clouds.cloud_service_request;" parent="77" vertex="1">
          <mxGeometry x="17.5" y="150" width="102" height="80" as="geometry"/>
        </mxCell>
        <mxCell id="6vp1yoECgQzRmQz0F0uj-138" value="&lt;font style=&quot;font-size: 18px&quot;&gt;Edge Cloud&lt;/font&gt;" style="aspect=fixed;html=1;points=[];align=center;image;fontSize=12;image=img/lib/mscae/Data_Box.svg;" parent="77" vertex="1">
          <mxGeometry x="22.5" y="10" width="92" height="86" as="geometry"/>
        </mxCell>
        <mxCell id="6vp1yoECgQzRmQz0F0uj-139" value="" style="endArrow=none;html=1;strokeWidth=3;strokeColor=#3333FF;" parent="77" edge="1">
          <mxGeometry width="50" height="50" relative="1" as="geometry">
            <mxPoint y="130" as="sourcePoint"/>
            <mxPoint x="138" y="130" as="targetPoint"/>
            <Array as="points"/>
          </mxGeometry>
        </mxCell>
      </root>
    </mxGraphModel>
  </diagram>
</mxfile>
